# xmcd
#
# Track frame offsets:
# 150
# 25303
# 42339
# 59453
# 79448
# 97151
# 120114
# 143593
# 162117
# 179237
# 197251
# 218315
# 236342
# 255360
# 279792
#
# Disc length: 4038 seconds
#
#
# Revision: 0
# Processed by: cddbd v1.5.2PL0 Copyright (c) Steve Scherf et al.
# Submitted via: FreeRIP 2.951 
#
DISCID=c00fc40f
DTITLE=Various Artist - All That Urban
DYEAR=2004
DGENRE=Hip-Hop
TTITLE0=Capone 'N' Noreaga - Iraq (See The World)
TTITLE1=Bootsy Collins - Love Gangsta
TTITLE2=Sean Paul - Gimme The Light
TTITLE3=Naughty By Nature - Hip Hop Hooray
TTITLE4=Queen Latifah - Ladies First
TTITLE5=De La Soul - Ring Ring Ring
TTITLE6=Digital Underground - The DFLO Shuffle
TTITLE7=All-4-One - (She's Got) Skillz
TTITLE8=Trick Daddy - Take It Da House
TTITLE9=Nate Dogg - I Got Love
TTITLE10=Eric Benet - True To Myself
TTITLE11=Kaylan - Rock Me All Night
TTITLE12=Keith Sweat - Twisted
TTITLE13=Mis-Teeq - Strawberrez
TTITLE14=Kulcha - Always Be
EXTD=
EXTT0=
EXTT1=
EXTT2=
EXTT3=
EXTT4=
EXTT5=
EXTT6=
EXTT7=
EXTT8=
EXTT9=
EXTT10=
EXTT11=
EXTT12=
EXTT13=
EXTT14=
PLAYORDER=
